<?xml version="1.0" standalone="no"?>
<!DOCTYPE svg PUBLIC "-//W3C//DTD SVG 20010904//EN"
 "http://www.w3.org/TR/2001/REC-SVG-20010904/DTD/svg10.dtd">
<svg version="1.0" xmlns="http://www.w3.org/2000/svg"
 width="400.000000pt" height="400.000000pt" viewBox="0 0 400.000000 400.000000"
 preserveAspectRatio="xMidYMid meet">

<g transform="translate(0.000000,400.000000) scale(0.100000,-0.100000)"
fill="#000000" stroke="none">
<path d="M0 2000 l0 -2000 2000 0 2000 0 0 2000 0 2000 -2000 0 -2000 0 0
-2000z m948 1219 c40 -10 92 -27 115 -37 64 -29 198 -132 252 -196 42 -48 54
-56 84 -56 44 0 136 -41 144 -65 4 -9 7 -36 7 -60 0 -49 9 -58 153 -140 37
-22 67 -43 67 -47 0 -10 -3 -10 -32 1 -13 5 -45 5 -71 1 -47 -7 -48 -6 -43 16
5 20 -1 27 -44 49 -27 14 -52 25 -55 25 -7 0 6 -52 16 -66 6 -8 -10 -11 -56
-10 -36 1 -65 2 -65 2 0 1 7 18 15 37 28 67 21 89 -42 140 l-58 47 -22 -25
c-29 -34 -46 -100 -39 -152 5 -40 4 -43 -18 -43 -43 0 -86 12 -79 23 3 5 5 53
5 106 -1 83 -4 98 -21 112 -20 16 -18 17 39 32 l60 15 0 -31 c0 -29 1 -30 16
-15 15 15 15 19 -5 46 -38 54 -131 131 -194 161 -102 48 -179 64 -307 64 -244
0 -438 -98 -516 -260 -54 -114 -32 -292 54 -422 119 -182 407 -378 687 -469
191 -63 637 -152 758 -152 l37 0 0 166 0 165 38 17 c30 14 66 17 187 16 91 0
161 -5 178 -12 l27 -12 0 -754 c0 -437 -4 -765 -9 -779 -13 -34 -74 -47 -221
-47 -138 0 -171 11 -189 61 -8 22 -11 207 -11 589 l0 557 -137 6 c-223 10
-583 75 -754 136 -293 104 -539 277 -667 469 -45 68 -88 189 -98 275 -25 212
173 461 412 516 138 32 273 32 402 0z m2695 -49 c118 -55 168 -134 193 -305
29 -191 1 -383 -105 -721 -51 -161 -137 -388 -182 -476 -16 -31 -28 -45 -36
-40 -9 6 3 47 47 154 94 234 181 528 216 732 21 126 15 351 -12 441 -22 73
-87 144 -150 163 -64 19 -178 15 -267 -9 -104 -28 -497 -222 -497 -244 0 -14
5 -14 35 5 65 40 94 43 152 14 59 -28 103 -78 103 -116 0 -13 -7 -48 -16 -78
-9 -29 -14 -68 -12 -87 l4 -33 -64 0 -63 0 20 25 c22 29 37 134 27 190 -5 25
-15 39 -36 50 -44 23 -66 18 -111 -22 l-41 -37 7 -60 c3 -34 8 -77 11 -97 l5
-36 -53 -6 c-29 -2 -54 -4 -55 -3 -1 1 4 20 12 41 20 58 21 439 1 478 l-15 27
59 0 c32 0 67 3 77 7 17 6 17 5 1 -13 -16 -19 -38 -113 -38 -166 l0 -29 78 55
c146 105 347 195 480 216 81 13 173 4 225 -20z m-1356 -58 c-19 -20 -31 -78
-42 -191 l-7 -74 35 22 c83 51 143 43 215 -29 36 -36 34 -41 -20 -63 l-37 -15
-6 29 c-7 31 -47 59 -84 59 -12 0 -39 -16 -61 -36 -34 -31 -40 -42 -40 -75 0
-33 -4 -41 -26 -49 -14 -6 -27 -10 -30 -10 -2 0 -4 83 -4 185 0 138 -4 194
-14 220 l-15 34 62 4 c34 2 68 4 76 5 11 2 10 -2 -2 -16z m-1209 -129 c6 -42
-69 -57 -84 -18 -10 25 16 46 50 43 23 -2 32 -9 34 -25z m630 0 c4 -26 -35
-50 -62 -40 -19 8 -21 53 -3 61 28 12 62 1 65 -21z m967 -3 c0 -33 -47 -52
-71 -28 -13 13 -14 20 -4 37 9 17 19 21 43 19 27 -2 32 -7 32 -28z m773 -17
c40 -29 51 -61 59 -162 6 -85 8 -93 35 -116 16 -14 34 -25 39 -25 6 0 2 -13
-8 -30 -9 -16 -20 -30 -23 -30 -9 0 -54 32 -67 48 -12 14 -15 13 -33 -6 -32
-35 -80 -54 -130 -54 -61 0 -107 24 -127 68 -49 102 84 199 204 149 l35 -15
-4 55 c-5 58 -28 95 -58 95 -25 0 -43 -26 -38 -55 6 -27 2 -29 -76 -40 -41 -6
-48 -4 -39 7 6 7 14 27 17 44 7 31 32 60 71 83 29 17 112 7 143 -16z m-1441
-4 c49 -9 67 -8 78 1 20 17 19 5 -6 -69 l-22 -64 -13 32 c-22 52 -110 89 -151
63 -16 -10 -33 -56 -25 -69 4 -6 40 -22 80 -37 131 -47 152 -64 152 -125 0
-20 -5 -31 -14 -31 -7 0 -35 -3 -61 -7 -46 -6 -47 -5 -36 15 15 28 14 67 -1
80 -7 5 -47 24 -88 41 -90 39 -110 55 -110 93 0 82 63 104 217 77z m-1592 -65
l-7 -46 38 28 c31 24 47 29 97 29 51 0 62 -3 82 -27 19 -22 25 -25 35 -13 18
21 97 55 130 55 17 0 44 -7 60 -15 61 -31 72 -78 46 -189 l-14 -60 34 -34 35
-35 -53 6 c-29 4 -68 7 -87 7 -29 0 -32 2 -21 16 15 18 26 156 16 208 -12 61
-55 57 -128 -12 -26 -24 -28 -31 -28 -108 l0 -82 -54 -4 c-48 -3 -53 -1 -45
14 16 30 11 171 -7 197 -20 27 -58 24 -106 -10 l-30 -22 4 -98 3 -99 -48 0
c-42 0 -47 2 -39 18 5 9 12 71 16 138 6 114 5 122 -15 140 -21 19 -21 19 33
30 29 6 55 12 57 13 2 0 0 -20 -4 -45z m681 -21 c-22 -81 -23 -170 -2 -211 9
-17 16 -33 16 -36 0 -2 -28 -6 -63 -8 l-64 -3 14 44 c19 65 17 190 -4 213 -15
17 -14 18 46 18 55 0 62 -2 57 -17z m630 -10 c-3 -16 -9 -56 -12 -90 l-7 -61
-27 10 c-26 8 -28 14 -32 75 -3 49 -9 69 -23 79 -17 12 -12 14 44 14 l63 0 -6
-27z m959 14 c-38 -25 -75 -37 -75 -25 0 6 -8 17 -17 24 -16 12 -9 13 47 14
56 0 62 -2 45 -13z m-5 -135 c0 -27 8 -64 19 -84 l18 -36 -64 -4 c-64 -3 -64
-3 -58 22 3 14 8 47 12 73 4 38 11 51 32 62 39 21 41 19 41 -33z m-798 -67
c23 -17 23 -17 -17 -10 -22 4 -43 9 -47 11 -10 6 -10 36 -2 59 5 13 10 11 24
-13 10 -16 29 -37 42 -47z m638 37 c0 -5 -7 -29 -16 -55 -12 -35 -13 -51 -4
-66 10 -20 8 -21 -56 -21 -65 0 -67 1 -50 19 9 10 20 35 23 55 5 31 12 39 47
55 47 22 56 24 56 13z m1185 -94 c14 -42 -55 -67 -89 -32 -19 19 -20 28 -3 42
31 25 83 20 92 -10z m-1447 -21 c3 -13 -4 -17 -30 -17 -18 0 -44 -3 -57 -7
-42 -11 -18 21 25 34 47 14 58 12 62 -10z m1175 -224 c-68 -2 -178 -2 -245 0
-68 1 -13 3 122 3 135 0 190 -2 123 -3z m-2325 -10 c-119 -2 -317 -2 -440 0
-123 1 -25 2 217 2 242 0 342 -1 223 -2z m2404 -835 c53 -69 44 -107 -37 -161
-74 -49 -75 -55 -27 -128 68 -100 53 -136 -42 -105 -66 20 -90 20 -107 0 -18
-22 -1 -46 41 -57 23 -6 54 -3 100 8 88 22 120 17 140 -17 13 -25 13 -31 0
-55 -16 -28 -29 -34 -105 -50 -35 -7 -40 -11 -36 -33 2 -14 5 -43 5 -65 1 -42
4 -40 -97 -86 -28 -13 -33 -12 -113 18 -5 2 -21 -5 -34 -17 -40 -35 -67 -26
-115 41 -20 26 -45 51 -56 54 -28 9 -59 -21 -59 -57 0 -55 -15 -68 -76 -68
-58 0 -66 14 -14 25 l30 7 -25 30 c-27 32 -23 58 15 78 29 15 25 35 -20 97
-48 67 -54 117 -17 151 32 30 69 36 140 22 43 -8 70 -8 89 -1 24 9 26 15 25
56 -2 40 2 50 26 71 36 30 68 30 135 -1 82 -38 138 -30 61 9 -33 16 -46 42
-33 64 18 28 75 62 106 62 57 0 96 68 68 121 -17 31 5 22 32 -13z"/>
<path d="M1912 2200 c-35 -5 -75 -16 -88 -25 -23 -15 -24 -20 -23 -123 1 -59
4 -120 8 -137 l6 -30 191 0 191 0 7 74 c3 41 6 107 6 147 l0 73 -37 10 c-59
15 -191 20 -261 11z"/>
<path d="M1990 1869 c-52 -5 -114 -6 -137 -3 l-43 5 0 -40 c0 -48 -22 -44 217
-45 l173 -1 0 37 c0 20 -3 39 -7 41 -19 11 -116 14 -203 6z"/>
<path d="M1928 1773 l-118 -4 0 -344 c0 -319 1 -344 18 -349 9 -2 43 -10 75
-16 l57 -11 0 -100 c0 -96 1 -99 24 -105 13 -3 35 -4 47 -2 23 3 24 6 27 105
l3 102 37 11 c20 5 46 10 57 10 45 1 45 -1 48 352 1 185 -1 339 -5 343 -9 9
-130 13 -270 8z"/>
<path d="M1812 859 c3 -181 5 -202 21 -214 44 -32 313 -28 352 5 12 10 15 47
15 212 l0 200 -42 -7 c-83 -13 -78 -6 -78 -115 0 -109 -6 -120 -67 -120 -54 0
-62 16 -65 120 l-3 95 -50 11 c-95 22 -87 40 -83 -187z"/>
<path d="M3290 2752 c-36 -36 -38 -65 -8 -86 46 -33 107 -12 126 43 14 39 -2
60 -50 67 -32 6 -41 2 -68 -24z"/>
<path d="M3505 1478 c-10 -38 -46 -68 -91 -75 -48 -7 -94 -38 -94 -63 0 -10
15 -27 36 -39 23 -14 34 -27 32 -39 -5 -27 -42 -26 -106 3 -75 33 -120 31
-142 -7 -12 -23 -13 -32 -1 -60 22 -56 24 -74 6 -92 -10 -9 -20 -14 -23 -11
-3 3 0 11 6 17 7 7 12 21 12 31 0 15 -4 17 -17 11 -10 -5 -64 -8 -121 -6 -97
2 -104 1 -127 -22 -14 -14 -25 -34 -25 -44 0 -10 20 -50 45 -88 25 -37 45 -71
45 -76 0 -4 -14 -23 -31 -43 l-32 -36 27 -27 c20 -22 23 -31 14 -40 -7 -7 -8
-12 -2 -12 17 0 34 23 34 47 0 13 7 37 15 53 12 24 22 30 47 30 25 0 42 -12
89 -62 l58 -63 25 24 c19 18 32 22 53 18 15 -4 44 -9 63 -13 l35 -6 -22 21
c-13 12 -23 27 -23 33 0 6 10 2 23 -10 13 -13 36 -22 53 -22 40 0 78 35 69 64
-3 11 -9 37 -12 57 -6 41 -4 42 79 54 50 6 68 24 68 65 0 35 -39 45 -103 26
-126 -37 -224 -4 -182 60 22 34 52 38 117 15 81 -28 91 -7 33 79 -19 29 -35
63 -35 76 0 25 5 30 80 86 46 35 59 64 41 95 -8 16 -10 15 -16 -9z"/>
</g>
</svg>
